####
#
# OBJ File Generated by Meshlab
#
####
# Object ffmiddle_mean.obj
#
# Vertices: 25
# Faces: 46
#
####
vn -0.590547 -0.187528 0.005549
v -0.023428 -0.000377 0.007555
vn -0.016916 -0.010179 -0.199498
v -0.002232 0.002856 -0.009270
vn -0.363622 1.344544 -1.381173
v -0.023093 0.004569 -0.004720
vn -0.310362 0.108476 0.006000
v -0.024189 0.001579 -0.007343
vn -0.057093 0.247114 -0.065553
v -0.002657 0.009011 -0.005777
vn 0.063898 -0.510384 0.729820
v -0.005607 -0.002845 0.008718
vn 0.051728 -0.413170 0.590810
v -0.001087 -0.006735 0.005602
vn 0.053445 -0.876770 -1.237373
v -0.007202 -0.007185 -0.005059
vn -0.127931 -0.315085 -2.151032
v -0.007283 -0.002851 -0.008133
vn -0.141503 -0.547679 -1.826586
v -0.018699 -0.001512 -0.007650
vn -0.218868 0.714967 1.424717
v -0.006368 0.001735 0.009116
vn -0.169892 0.554980 1.105911
v -0.006522 0.006274 0.006814
vn -0.134757 0.630670 0.324358
v -0.006983 0.009037 0.001251
vn 2.544716 0.157968 0.260035
v -0.001547 0.002994 0.008994
vn 0.278391 0.017282 0.028448
v -0.001171 -0.002440 0.008613
vn 0.272156 0.009678 -0.006195
v -0.001572 0.007491 0.006505
vn -0.317076 0.578604 0.487433
v -0.022457 0.006100 0.000497
vn -0.439970 1.357268 2.146230
v -0.018054 0.003939 0.005927
vn -0.557702 -0.323553 0.064522
v -0.021440 -0.007031 -0.005783
vn -0.241334 -0.169070 0.041396
v -0.020195 -0.008440 -0.002090
vn -0.028658 -0.380084 0.320549
v -0.021550 -0.004342 0.006748
vn -0.136786 -2.269668 1.770697
v -0.005213 -0.006391 0.005725
vn 1.153491 -2.067360 -0.574512
v -0.006077 -0.008167 0.000733
vn -0.009703 -2.635755 0.743709
v -0.016969 -0.007305 0.003645
vn -0.027218 -1.393224 0.271218
v -0.020005 -0.007403 0.003257
# 25 vertices, 0 vertices normals

f 19//19 1//1 4//4
f 5//5 2//2 4//4
f 4//4 1//1 17//17
f 13//13 5//5 17//17
f 4//4 2//2 10//10
f 10//10 19//19 4//4
f 8//8 2//2 7//7
f 3//3 5//5 4//4
f 4//4 17//17 3//3
f 3//3 17//17 5//5
f 13//13 17//17 12//12
f 15//15 6//6 7//7
f 2//2 8//8 9//9
f 9//9 8//8 19//19
f 9//9 10//10 2//2
f 19//19 10//10 9//9
f 1//1 19//19 21//21
f 21//21 6//6 1//1
f 1//1 6//6 11//11
f 11//11 12//12 1//1
f 14//14 12//12 11//11
f 11//11 15//15 14//14
f 6//6 15//15 11//11
f 13//13 12//12 16//16
f 16//16 12//12 14//14
f 16//16 5//5 13//13
f 2//2 5//5 16//16
f 14//14 15//15 16//16
f 7//7 2//2 16//16
f 16//16 15//15 7//7
f 18//18 17//17 1//1
f 1//1 12//12 18//18
f 18//18 12//12 17//17
f 20//20 21//21 19//19
f 25//25 21//21 20//20
f 19//19 8//8 20//20
f 24//24 21//21 25//25
f 7//7 6//6 22//22
f 6//6 21//21 22//22
f 22//22 24//24 7//7
f 21//21 24//24 22//22
f 23//23 8//8 7//7
f 7//7 24//24 23//23
f 23//23 20//20 8//8
f 23//23 24//24 25//25
f 25//25 20//20 23//23
# 46 faces, 0 coords texture

# End of File