####
#
# OBJ File Generated by Meshlab
#
####
# Object lfdist_mean.obj
#
# Vertices: 45
# Faces: 86
#
####
vn 0.177632 -0.420390 -0.211114
v -0.006799 -0.006495 -0.006835
vn 0.484895 -1.147569 -0.576293
v 0.000188 -0.003675 -0.006571
vn -0.953553 1.279540 0.979102
v -0.007871 0.004786 -0.000835
vn -0.423571 1.437566 0.076486
v -0.008510 0.004687 -0.002511
vn -0.924890 0.089325 1.509095
v -0.007551 0.002428 0.002559
vn -0.885302 0.012024 1.303224
v -0.013495 0.000401 -0.000965
vn -0.410821 -1.223973 0.743662
v -0.015529 -0.004950 -0.003905
vn -0.362347 -0.418193 0.573154
v -0.017394 -0.002892 -0.003583
vn -0.150748 -0.173982 0.238451
v -0.010499 -0.004512 -0.000405
vn -0.827917 -0.689416 1.445187
v -0.012236 -0.001763 -0.000089
vn -0.624207 -0.212822 -0.109188
v -0.018912 -0.001923 -0.010731
vn -1.546103 -0.253513 0.815859
v -0.019062 -0.003441 -0.006913
vn 0.050139 -1.563490 -0.015202
v -0.012694 -0.006664 -0.008871
vn -0.393058 1.285702 -0.021199
v -0.016879 0.002221 -0.010870
vn -0.654091 2.198417 0.006986
v -0.013691 0.003225 -0.009068
vn -0.174236 0.585611 0.001861
v -0.017822 0.001991 -0.007348
vn 0.668304 1.201579 -2.395389
v -0.007454 -0.000172 -0.011415
vn 0.621428 0.330215 -1.344215
v -0.003097 0.002948 -0.008635
vn 0.009554 0.176778 -0.139848
v -0.005142 0.003456 -0.008507
vn 0.078583 1.453953 -1.150214
v -0.015010 0.000861 -0.012461
vn -0.926844 0.129327 1.217536
v -0.017690 -0.000569 -0.004055
vn -0.269220 0.266934 0.281609
v -0.019180 0.001185 -0.007142
vn -0.428847 -0.002188 0.258092
v -0.019769 -0.001058 -0.007514
vn 0.067228 -0.540618 0.029577
v -0.000030 -0.005455 -0.003211
vn 0.145412 -1.169345 0.063975
v -0.008236 -0.006449 -0.002731
vn -0.551535 -0.559681 1.171268
v -0.006310 -0.000485 0.003491
vn -0.483047 -0.490181 1.025823
v -0.004214 -0.003297 0.003134
vn 0.196606 0.124675 0.171825
v -0.003984 0.006097 -0.003946
vn -0.139126 -1.187851 0.733635
v -0.001774 -0.005157 0.000586
vn -1.411845 -1.648703 0.831119
v -0.017545 -0.004565 -0.006566
vn -0.231014 -0.385512 0.068184
v -0.013721 -0.006727 -0.005830
vn 0.502967 -1.187222 -0.631026
v -0.006282 -0.004797 -0.009617
vn 0.870060 -0.833345 -1.434723
v -0.000589 -0.001182 -0.008490
vn 0.443098 -0.515086 -0.751480
v -0.006568 -0.002590 -0.011298
vn 0.425653 0.999800 -1.736939
v -0.012205 0.000254 -0.012417
vn -0.214188 -0.678959 -0.682979
v -0.016676 -0.002914 -0.012630
vn -0.391886 -0.333617 -0.307402
v -0.018207 -0.003802 -0.009715
vn 0.389356 -0.199123 -1.234226
v -0.012296 -0.001271 -0.013318
vn 0.124509 -0.222300 -0.312966
v -0.012302 -0.003451 -0.012968
vn -0.470809 0.799209 -1.097279
v -0.018375 0.001104 -0.011042
vn -0.555040 0.039431 -0.574662
v -0.016050 -0.000788 -0.013418
vn -0.841783 -1.064481 -0.266817
v -0.016770 -0.005318 -0.008200
vn -0.294774 -1.041037 -0.676069
v -0.016541 -0.004339 -0.011256
vn -0.121349 -0.428563 -0.278317
v -0.012611 -0.005221 -0.011612
vn -0.416891 -1.002120 -0.059049
v -0.016040 -0.005538 -0.009629
# 45 vertices, 0 vertices normals

f 5//5 26//26 28//28
f 28//28 3//3 5//5
f 2//2 28//28 24//24
f 28//28 29//29 24//24
f 24//24 1//1 2//2
f 22//22 5//5 3//3
f 4//4 3//3 28//28
f 33//33 28//28 2//2
f 33//33 18//18 28//28
f 19//19 14//14 28//28
f 28//28 18//18 19//19
f 26//26 5//5 6//6
f 5//5 22//22 6//6
f 26//26 6//6 10//10
f 10//10 6//6 8//8
f 9//9 7//7 31//31
f 26//26 10//10 9//9
f 8//8 7//7 9//9
f 9//9 10//10 8//8
f 23//23 11//11 12//12
f 12//12 8//8 23//23
f 12//12 7//7 8//8
f 13//13 1//1 31//31
f 28//28 14//14 15//15
f 14//14 22//22 16//16
f 16//16 15//15 14//14
f 16//16 22//22 3//3
f 3//3 4//4 16//16
f 16//16 4//4 28//28
f 28//28 15//15 16//16
f 38//38 18//18 17//17
f 18//18 33//33 17//17
f 20//20 19//19 18//18
f 14//14 19//19 20//20
f 8//8 6//6 21//21
f 21//21 6//6 22//22
f 23//23 8//8 21//21
f 21//21 22//22 23//23
f 25//25 9//9 31//31
f 31//31 1//1 25//25
f 25//25 24//24 29//29
f 1//1 24//24 25//25
f 26//26 9//9 27//27
f 28//28 26//26 27//27
f 27//27 29//29 28//28
f 27//27 25//25 29//29
f 9//9 25//25 27//27
f 31//31 7//7 30//30
f 7//7 12//12 30//30
f 30//30 42//42 31//31
f 12//12 42//42 30//30
f 2//2 1//1 32//32
f 38//38 17//17 34//34
f 34//34 17//17 33//33
f 34//34 33//33 2//2
f 2//2 32//32 34//34
f 35//35 18//18 38//38
f 38//38 20//20 35//35
f 35//35 20//20 18//18
f 43//43 36//36 44//44
f 1//1 13//13 44//44
f 44//44 32//32 1//1
f 14//14 20//20 41//41
f 41//41 36//36 11//11
f 41//41 20//20 38//38
f 37//37 42//42 12//12
f 37//37 12//12 11//11
f 37//37 36//36 43//43
f 11//11 36//36 37//37
f 39//39 44//44 36//36
f 39//39 41//41 38//38
f 36//36 41//41 39//39
f 38//38 34//34 39//39
f 39//39 34//34 32//32
f 32//32 44//44 39//39
f 14//14 41//41 40//40
f 40//40 41//41 11//11
f 40//40 22//22 14//14
f 23//23 22//22 40//40
f 40//40 11//11 23//23
f 45//45 37//37 43//43
f 42//42 37//37 45//45
f 43//43 44//44 45//45
f 45//45 44//44 13//13
f 45//45 13//13 31//31
f 31//31 42//42 45//45
# 86 faces, 0 coords texture

# End of File