####
#
# OBJ File Generated by Meshlab
#
####
# Object mfprox_mean.obj
#
# Vertices: 27
# Faces: 50
#
####
vn 0.910690 -0.611220 0.099015
v 0.006146 0.006336 0.009794
vn 0.018475 -1.658623 0.609856
v -0.001673 -0.006766 -0.000386
vn 0.353812 -0.246917 0.041035
v 0.002547 0.001045 0.010230
vn 1.444910 -1.280837 0.368066
v -0.000943 -0.003024 0.009770
vn -1.657351 0.057003 -0.213058
v -0.032856 0.009493 0.000274
vn -0.107468 0.949965 0.298909
v -0.027612 0.009908 0.000839
vn -0.082141 0.726086 0.228465
v -0.031121 0.011529 -0.005574
vn 0.011610 -0.151614 -0.127567
v 0.001075 -0.004393 -0.009797
vn 0.081546 -1.064865 -0.895969
v -0.025267 -0.007742 -0.008213
vn 0.090615 -1.183288 -0.995610
v -0.025006 -0.004357 -0.012213
vn -0.818872 0.042366 -0.110692
v -0.031065 0.003568 -0.015242
vn -0.283695 0.123030 -0.041353
v -0.031081 0.009125 -0.012999
vn 0.216511 -0.064767 -1.372823
v 0.002582 0.002340 -0.009877
vn 0.071877 -1.620311 0.140571
v -0.002566 -0.007276 -0.005802
vn -0.097435 -0.774362 -0.875878
v -0.030836 -0.001971 -0.013674
vn -0.279539 -0.661077 0.087257
v -0.025865 -0.008088 -0.003247
vn -0.577422 -1.365536 0.180240
v -0.031021 -0.006220 -0.005611
vn -0.160071 -0.140665 -0.008945
v -0.031058 -0.005887 -0.010188
vn -0.645698 -1.111970 1.211639
v -0.032291 -0.005070 -0.000969
vn -0.207218 -0.356855 0.388841
v -0.026496 -0.006567 0.000745
vn -0.179141 -0.187032 0.632139
v -0.027315 -0.001954 0.003364
vn -0.536295 -0.080933 -0.064548
v -0.033167 -0.001500 0.001839
vn -1.287217 -0.024982 -0.165813
v -0.033444 0.003478 0.003234
vn -0.037726 1.356045 0.597686
v -0.005418 0.009189 0.003873
vn 0.012995 0.661467 0.293224
v -0.005055 0.012194 -0.002923
vn 0.005420 0.025631 -0.032070
v -0.005377 0.008983 -0.008768
vn 0.042814 0.090890 -0.237213
v -0.025356 0.008432 -0.012585
# 27 vertices, 0 vertices normals

f 3//3 1//1 23//23
f 23//23 4//4 3//3
f 3//3 8//8 1//1
f 16//16 4//4 20//20
f 2//2 4//4 16//16
f 8//8 3//3 2//2
f 2//2 3//3 4//4
f 5//5 11//11 23//23
f 5//5 6//6 7//7
f 23//23 1//1 5//5
f 1//1 6//6 5//5
f 16//16 18//18 9//9
f 8//8 9//9 10//10
f 10//10 9//9 18//18
f 21//21 4//4 23//23
f 21//21 20//20 4//4
f 16//16 20//20 19//19
f 24//24 6//6 1//1
f 11//11 5//5 12//12
f 12//12 5//5 7//7
f 13//13 8//8 11//11
f 1//1 8//8 13//13
f 8//8 2//2 14//14
f 14//14 9//9 8//8
f 14//14 2//2 16//16
f 16//16 9//9 14//14
f 15//15 18//18 11//11
f 15//15 10//10 18//18
f 11//11 8//8 15//15
f 8//8 10//10 15//15
f 17//17 18//18 16//16
f 16//16 19//19 17//17
f 17//17 19//19 18//18
f 20//20 21//21 22//22
f 22//22 19//19 20//20
f 22//22 21//21 23//23
f 18//18 19//19 22//22
f 23//23 11//11 22//22
f 11//11 18//18 22//22
f 25//25 12//12 7//7
f 26//26 12//12 25//25
f 7//7 6//6 25//25
f 6//6 24//24 25//25
f 25//25 24//24 1//1
f 1//1 13//13 25//25
f 25//25 13//13 26//26
f 11//11 12//12 27//27
f 27//27 12//12 26//26
f 27//27 13//13 11//11
f 26//26 13//13 27//27
# 50 faces, 0 coords texture

# End of File